<svg width="100%" height="100%" xmlns="http://www.w3.org/2000/svg" viewBox="0 0 1137.7 252.82" width="100%"><path fill="currentColor" d="M582.58 93.07h-15.55c-1.81 0-3.53-.78-4.73-2.13l-6.31-7.13c-.94-1.06-2.29-1.67-3.71-1.67s-2.77.61-3.71 1.67l-5.41 6.11c-1.77 2-4.31 3.15-6.98 3.15h-85.12c-2.42 6.91-4 14.21-4.63 21.78h80.36c1.41 0 2.76-.58 3.74-1.6l7.48-7.81c.93-.97 2.23-1.53 3.58-1.53h.31c1.42 0 2.77.61 3.71 1.67l6.31 7.13a6.303 6.303 0 0 0 4.74 2.13h65.59a87.878 87.878 0 0 0-4.63-21.78h-35.01ZM495.04 160.65c1.41 0 2.76-.58 3.74-1.6l7.48-7.81c.93-.97 2.23-1.53 3.58-1.53h.31c1.42 0 2.77.61 3.71 1.67l6.31 7.13a6.303 6.303 0 0 0 4.74 2.13h88.89a87.368 87.368 0 0 0 7.22-22H535.7c-1.81 0-3.54-.78-4.74-2.13l-6.31-7.13c-.94-1.06-2.29-1.67-3.71-1.67s-2.77.61-3.71 1.67l-5.41 6.11a9.33 9.33 0 0 1-6.99 3.15h-57.22a87.5 87.5 0 0 0 7.22 22h40.2ZM558.11 69.26c1.41 0 2.76-.58 3.74-1.6l7.48-7.81c.93-.97 2.23-1.53 3.58-1.53h.31c1.42 0 2.77.61 3.71 1.67l6.31 7.13a6.303 6.303 0 0 0 4.74 2.13h16.9c-16.1-21.4-41.71-35.24-70.55-35.24s-54.45 13.84-70.55 35.24h94.33ZM524.15 182.45h-23.12c-1.81 0-3.54-.78-4.74-2.13l-6.31-7.13c-.94-1.06-2.29-1.67-3.71-1.67s-2.77.61-3.71 1.67l-5.41 6.11a9.33 9.33 0 0 1-6.99 3.15h-.36c16.11 17.26 39.04 28.06 64.5 28.06s48.4-10.8 64.5-28.06h-74.67ZM144.23 204.81l-17.95-43.6H46.07l-17.95 43.6H7.36L86.05 39.72l78.93 165.09h-20.75Zm-91.4-60.16h66.45L85.94 74.31l-33.12 70.34ZM193.66 204.81V39.72h45.94c35.91 0 54.8 16.55 54.8 47.57s-20.05 47.1-55.03 47.1h-26.35v70.42h-19.35Zm19.35-87.67h21.92c27.75 0 39.87-9.09 39.87-29.85s-12.36-30.31-39.87-30.31h-21.92v60.16ZM364.68 57.44h-56.89V39.72h133.14v17.72h-56.9v147.37h-19.35V57.44ZM649.48 174.73l16.67-11.31 1.29 2.68c10.26 18.65 21.45 26.12 38.47 26.12 18.89 0 32.18-13.06 32.18-28.91 0-14.92-7.46-24.95-37.31-37.31-34.28-14.22-45.94-28.91-45.94-49.9 0-22.85 17.95-40.81 48.97-40.81 22.85 0 38.47 9.79 47.33 25.65l-13.52 9.33-3.96-.93c-7-10.96-15.62-17.26-30.31-17.26-17.95 0-28.45 10.03-28.45 23.55 0 12.59 6.76 19.82 35.91 33.11 38.01 17.26 47.33 31.48 47.33 54.33 0 24.95-21.45 46.17-52 46.17-25.65 0-43.37-9.79-56.66-34.51ZM844.94 137.04h9.9v63.27h33.57l-1.12 8.98h-42.35v-72.25ZM936.57 137.04l30.21 71.94-.31.31h-10.61l-7.25-18.06h-33.57l-7.14 18.06h-10.61l-.31-.31 30.51-71.94h9.08Zm-18.27 46.12h27.04l-8.57-21.33c-1.84-4.8-3.57-9.18-4.9-13.37h-.2c-1.43 4.18-3.06 8.57-4.9 13.37l-8.47 21.33ZM980.26 209.29v-72.25h19.49c16.84 0 25.1 6.63 25.1 18.78 0 7.14-4.29 13.16-11.33 15.2v.2c9.08 1.94 14.9 8.37 14.9 17.45 0 13.67-8.78 20.61-28.37 20.61h-19.8Zm9.9-40.92h10.1c9.9 0 14.8-3.98 14.8-12.04 0-7.25-5-10.71-15.92-10.71h-8.98v22.76Zm0 32.35h9.59c13.47 0 18.78-3.98 18.78-12.35s-5.51-12.35-17.76-12.35h-10.61v24.7ZM1042.71 204.69l1.43-10h.41c5.41 3.98 12.86 7.96 20.92 7.96 8.67 0 13.78-5.31 13.78-11.74 0-5.82-2.86-9.9-15.71-15.31-14.9-6.12-20-12.55-20-22.14 0-10.31 8.27-18.47 22.35-18.47 8.06 0 14.49 2.24 19.8 5.41l-1.33 9.69h-.41c-5.51-4.08-11.84-6.53-18.37-6.53-7.45 0-11.63 4.18-11.63 9.69s2.76 8.27 15.51 13.98c16.23 7.35 20.31 13.78 20.31 23.16 0 11.53-9.39 20.92-24.39 20.92-9.49 0-17.25-3.37-22.65-6.63Z"></path></svg>
