<?xml version="1.0" encoding="utf-8"?>
<!-- width="180.8px" height="23.4px"  -->
<svg preserveAspectRatio="xMinYMin" version="1.2" baseProfile="tiny" id="aptos-logo-explorer" xmlns="http://www.w3.org/2000/svg" xmlns:xlink="http://www.w3.org/1999/xlink"
	 x="0px" y="0px" width="100%" height="100%" viewBox="0 0 180.8 23.4" overflow="visible" xml:space="preserve">
<g>
	<path fill="#FFFFFF" d="M76.4,7.8h-2.1c-0.2,0-0.5-0.1-0.6-0.3l-0.8-0.9c-0.2-0.3-0.7-0.3-0.9-0.1c0,0,0,0-0.1,0.1l-0.7,0.8
		c-0.2,0.3-0.6,0.4-0.9,0.4H58.9c-0.3,0.9-0.5,1.9-0.6,2.9H69c0.2,0,0.4-0.1,0.5-0.2l1-1c0.1-0.1,0.3-0.2,0.5-0.2h0
		c0.2,0,0.4,0.1,0.5,0.2l0.8,0.9c0.2,0.2,0.4,0.3,0.6,0.3h8.7c-0.1-1-0.3-2-0.6-2.9H76.4z"/>
	<path fill="#FFFFFF" d="M69.5,13.6l-0.8-0.9c-0.2-0.3-0.7-0.3-0.9-0.1c0,0,0,0-0.1,0.1L67,13.4c-0.2,0.3-0.6,0.4-0.9,0.4h-7.6
		c0.2,1,0.5,2,1,2.9h5.3c0.2,0,0.4-0.1,0.5-0.2l1-1c0.1-0.1,0.3-0.2,0.5-0.2h0c0.2,0,0.4,0.1,0.5,0.2l0.8,0.9
		c0.2,0.2,0.4,0.3,0.6,0.3h11.8c0.4-0.9,0.8-1.9,1-2.9H70.2C69.9,13.9,69.7,13.8,69.5,13.6z"/>
	<path fill="#FFFFFF" d="M73.6,4.5l1-1c0.1-0.1,0.3-0.2,0.5-0.2h0c0.2,0,0.4,0.1,0.5,0.2l0.8,0.9c0.2,0.2,0.4,0.3,0.6,0.3h2.2
		c-3.9-5.2-11.3-6.2-16.5-2.3C62,3,61.2,3.8,60.6,4.7h12.6C73.3,4.7,73.5,4.6,73.6,4.5z"/>
	<path fill="#FFFFFF" d="M65.6,19.7c-0.2,0-0.5-0.1-0.6-0.3l-0.8-0.9c-0.2-0.3-0.7-0.3-0.9,0c0,0,0,0,0,0l-0.7,0.8
		c-0.2,0.3-0.6,0.4-0.9,0.4h0c4.4,4.7,11.9,5,16.6,0.5c0.2-0.2,0.4-0.4,0.5-0.5h-9.9H65.6z"/>
	<path fill="#FFFFFF" d="M0,22.7h2.8l2.4-5.8h10.6l2.4,5.8h2.8L10.4,0.7L0,22.7z M6,14.7l4.4-9.4l4.4,9.4H6z"/>
	<path fill="#FFFFFF" d="M30.8,0.7h-6.1v21.9l2.6,0v-9.4h3.5c4.6,0,7.3-2.3,7.3-6.2C38.1,2.9,35.6,0.7,30.8,0.7z M30.2,11h-2.9V3
		h2.9c3.7,0,5.3,1.2,5.3,4C35.5,9.8,33.9,11,30.2,11z"/>
	<polygon fill="#FFFFFF" points="39.9,3.1 47.4,3.1 47.4,22.7 50,22.7 50,3.1 57.6,3.1 57.6,0.7 39.9,0.7 	"/>
	<polygon fill="#FFFFFF" points="85.3,18.7 85.3,18.7 85.3,18.7 	"/>
	<path fill="#FFFFFF" d="M93.4,9.9c-3.9-1.8-4.8-2.7-4.8-4.4c0-1.8,1.4-3.1,3.8-3.1c1.9,0,3.1,0.8,4,2.3L97,4.8l1.8-1.2
		c-1.2-2.1-3.3-3.4-6.3-3.4c-4.1,0-6.5,2.4-6.5,5.4c0,2.8,1.5,4.7,6.1,6.6c4,1.6,5,3,5,5c0,2.1-1.8,3.8-4.3,3.8
		c-2.3,0-3.7-1-5.1-3.5l-0.2-0.4l-2.2,1.5c1.8,3.3,4.1,4.6,7.5,4.6c4.1,0,6.9-2.8,6.9-6.1C99.7,14.1,98.4,12.2,93.4,9.9z"/>
	<g>
		<polygon fill="#FFFFFF" points="120.2,15.4 115,15.4 115,11.6 119.6,11.6 119.6,10.7 115,10.7 115,7.2 120.1,7.2 120.1,6.2 
			113.9,6.2 113.9,16.3 120.2,16.3 		"/>
		<polygon fill="#FFFFFF" points="126.2,12.6 128.6,9 127.4,9 125.6,11.9 123.6,9 122.5,9 124.9,12.6 122.4,16.3 123.5,16.3 
			125.5,13.3 127.5,16.3 128.7,16.3 		"/>
		<path fill="#FFFFFF" d="M134.5,8.8c-1,0-1.7,0.4-2.3,1.2l0-1h-0.9v10.2h1v-3.6c0.5,0.6,1.3,1,2.1,1c1.9,0,3.1-1.6,3.1-4
			C137.5,10.2,136.3,8.8,134.5,8.8z M134.4,15.6c-0.8,0-1.5-0.4-2.1-1.1v-3.6c0.5-0.7,1.2-1.2,2.1-1.2c1.2,0,2,1,2,2.9
			C136.4,14.6,135.5,15.6,134.4,15.6z"/>
		<polygon fill="#FFFFFF" points="143.4,6.2 140,6.2 140,7 142.4,7 142.4,15.5 139.9,15.5 139.9,16.3 145.9,16.3 145.9,15.5 
			143.4,15.5 		"/>
		<path fill="#FFFFFF" d="M151.6,8.8c-2.1,0-3.4,1.5-3.4,3.9c0,2.4,1.2,3.8,3.4,3.8c2.2,0,3.5-1.4,3.5-3.9
			C155,10.2,153.7,8.8,151.6,8.8z M151.6,15.6c-1.4,0-2.3-1-2.3-3c0-2,1-3,2.3-3c1.4,0,2.4,0.9,2.4,3
			C153.9,14.7,152.9,15.6,151.6,15.6z"/>
		<path fill="#FFFFFF" d="M160.1,10.2l0-1.2h-3v0.8h2.1v5.8h-2.1v0.8h5.9v-0.8h-2.8v-4.3c0.5-1,1.1-1.5,1.8-1.5h1.4v-1h-1.4
			C161.1,8.8,160.4,9.4,160.1,10.2z"/>
		<path fill="#FFFFFF" d="M169.1,8.8c-2,0-3.5,1.6-3.5,3.9c0,2.5,1.5,3.8,3.5,3.8c1.1,0,2.1-0.4,2.9-1l-0.4-0.7
			c-0.8,0.6-1.5,0.8-2.3,0.8c-1.6,0-2.5-1.1-2.6-2.7h5.4c0-0.2,0-0.4,0-0.6C172.2,10,171.1,8.8,169.1,8.8z M166.8,12.1
			c0.1-1.5,1.1-2.4,2.4-2.4c1.5,0,2.1,1,2.1,2.4H166.8z"/>
		<path fill="#FFFFFF" d="M179.4,9.8h1.4v-1h-1.4c-1,0-1.6,0.6-1.9,1.4l0-1.2h-3v0.8h2.1v5.8h-2.1v0.8h5.9v-0.8h-2.8v-4.3
			C178,10.2,178.7,9.8,179.4,9.8z"/>
	</g>
</g>
</svg>
