<?xml version="1.0" encoding="utf-8"?>
<!-- Generator: Adobe Illustrator 26.1.0, SVG Export Plug-In . SVG Version: 6.00 Build 0)  -->
<svg version="1.2" baseProfile="tiny" id="Layer_1" xmlns="http://www.w3.org/2000/svg" xmlns:xlink="http://www.w3.org/1999/xlink"
	 x="0px" y="0px" width="40px" height="40px" viewBox="0 0 112 112" overflow="visible" xml:space="preserve">
<path fill="#FFFFFF" d="M86.6,37.4h-9.9c-1.1,0-2.2-0.5-3-1.3l-4-4.5c-1.2-1.3-3.1-1.4-4.5-0.3c-0.1,0.1-0.2,0.2-0.3,0.3l-3.4,3.9
	c-1.1,1.3-2.8,2-4.5,2H2.9C1.4,41.9,0.4,46.6,0,51.3h51.2c0.9,0,1.8-0.4,2.4-1l4.8-5c0.6-0.6,1.4-1,2.3-1h0.2c0.9,0,1.8,0.4,2.4,1.1
	l4,4.5c0.8,0.9,1.9,1.4,3,1.4H112c-0.4-4.7-1.4-9.4-2.9-13.8H86.6z"/>
<path fill="#FFFFFF" d="M53.8,65l-4-4.5c-1.2-1.3-3.1-1.4-4.5-0.3c-0.1,0.1-0.2,0.2-0.3,0.3l-3.5,3.9c-1.1,1.3-2.7,2-4.4,2H0.8
	c0.9,4.8,2.5,9.5,4.6,14h25.5c0.9,0,1.7-0.4,2.4-1l4.8-5c0.6-0.6,1.4-1,2.3-1h0.2c0.9,0,1.8,0.4,2.4,1.1l4,4.5
	c0.8,0.9,1.9,1.4,3,1.4h56.6c2.1-4.4,3.7-9.1,4.6-14H56.8C55.6,66.4,54.5,65.9,53.8,65z"/>
<path fill="#FFFFFF" d="M73.4,21.4l4.8-5c0.6-0.6,1.4-1,2.3-1h0.2c0.9,0,1.8,0.4,2.4,1l4,4.5c0.8,0.9,1.9,1.3,3,1.3h10.8
	c-18.8-24.8-54.1-29.7-79-11c-4.1,3.1-7.8,6.8-11,11h60.1C72,22.4,72.8,22,73.4,21.4z"/>
<path fill="#FFFFFF" d="M34.7,94.2c-1.2,0-2.3-0.5-3-1.3l-4-4.5c-1.2-1.3-3.2-1.4-4.5-0.2c-0.1,0.1-0.1,0.1-0.2,0.2l-3.5,3.9
	c-1.1,1.3-2.7,2-4.4,2h-0.2C36,116.9,71.7,118,94.4,96.7c0.9-0.8,1.7-1.7,2.6-2.6H49.4H34.7z"/>
</svg>
