<?xml version="1.0" encoding="utf-8"?>
<!-- Generator: Adobe Illustrator 26.4.1, SVG Export Plug-In . SVG Version: 6.00 Build 0)  -->
<svg version="1.1" id="layer_1" xmlns="http://www.w3.org/2000/svg" xmlns:xlink="http://www.w3.org/1999/xlink" x="0px"
	 y="0px" viewBox="0 0 100 100" style="enable-background:new 0 0 100 100;" xml:space="preserve">
<style type="text/css">
	.st0{fill:none;}
	.st1{fill:url(#SVGID_1_);}
	.st2{fill:#FFFFFF;}
	.st3{fill:url(#SVGID_00000106848009140909196970000009740719262785708458_);}
</style>
<g>
	<rect x="-0.1" y="0.1" class="st0" width="100" height="100"/>
	<g>

			<linearGradient id="SVGID_1_" gradientUnits="userSpaceOnUse" x1="35.7207" y1="85.8987" x2="78.6111" y2="23.0333" gradientTransform="matrix(1 0 0 -1 0 102)">
			<stop  offset="1.635870e-03" style="stop-color:#A88FFF"/>
			<stop  offset="1" style="stop-color:#3919F2"/>
		</linearGradient>
		<path class="st1" d="M94.6,62.6V31.5c0-3.5-2-6.8-5-8.7L62.2,7.2c-3.1-1.9-7-1.9-10.3,0L24.2,23c-3.1,1.9-5,5.2-5,8.7v31.1
			c0,3.5,2,6.8,5,8.7l27.4,15.6c3.1,1.9,7,1.9,10.3,0l27.4-15.6C92.7,69.4,94.6,66.1,94.6,62.6z"/>
		<path class="st2" d="M77.3,35.6L56.9,24.1L36.5,35.6v22.9l20.4,11.5V47L77.3,35.6z"/>

			<linearGradient id="SVGID_00000066497572586985794100000015778483440907699639_" gradientUnits="userSpaceOnUse" x1="28.2456" y1="57.5531" x2="28.2456" y2="13.4634" gradientTransform="matrix(1 0 0 -1 0 102)">
			<stop  offset="0" style="stop-color:#00F3E2"/>
			<stop  offset="1" style="stop-color:#2C0ED0"/>
		</linearGradient>
		<circle style="fill:url(#SVGID_00000066497572586985794100000015778483440907699639_);" cx="28.2" cy="66.5" r="22"/>
		<g>
			<path class="st2" d="M20.5,78L15,56h4.4l2.7,12.3c0.1,0.4,0.2,0.9,0.3,1.4c0.1,0.5,0.2,0.9,0.2,1.4c0.1-0.4,0.2-0.9,0.3-1.4
				c0.1-0.5,0.2-0.9,0.3-1.3L26.3,56h3.9l3.1,12.3c0.1,0.4,0.2,0.9,0.3,1.4c0.1,0.5,0.2,1,0.3,1.4c0.1-0.4,0.1-0.9,0.2-1.4
				c0.1-0.5,0.2-1,0.3-1.4L37.1,56h4.4L36,78h-4l-3-11.7c-0.1-0.4-0.2-0.9-0.4-1.5c-0.1-0.6-0.3-1.2-0.4-1.7c-0.1,0.5-0.2,1-0.4,1.7
				c-0.1,0.6-0.3,1.1-0.4,1.5l-3,11.7H20.5z"/>
			<rect x="12.8" y="64.8" class="st2" width="6.6" height="4.4"/>
			<rect x="37.1" y="64.8" class="st2" width="6.6" height="4.4"/>
		</g>
	</g>
</g>
</svg>
