<svg width="16" height="16" viewBox="0 0 16 16" fill="none" xmlns="http://www.w3.org/2000/svg">
<path fill-rule="evenodd" clip-rule="evenodd" d="M3.96219 5.36391C3.96219 3.13411 5.7698 1.3265 7.9996 1.3265C10.2294 1.3265 12.037 3.13411 12.037 5.36391V7.27121V7.30522L12.0405 7.33904C12.0923 7.84603 12.2346 8.34058 12.4616 8.79894L13.6 11.0982C13.7758 11.4532 13.5175 11.8693 13.1213 11.8693H2.87804C2.48188 11.8693 2.22357 11.4532 2.39936 11.0982L3.51899 8.83683C3.80678 8.25559 3.9583 7.61652 3.96218 6.96817H3.96219V6.96417V5.36391ZM7.9996 -0.00683594C5.03342 -0.00683594 2.62886 2.39773 2.62886 5.36391V6.96207C2.6259 7.40728 2.52172 7.84607 2.3241 8.24522L1.20446 10.5066C0.589896 11.7478 1.49298 13.2027 2.87804 13.2027H13.1213C14.5064 13.2027 15.4094 11.7478 14.7949 10.5066L13.6565 8.20732C13.5052 7.9018 13.4086 7.57288 13.3703 7.23546V5.36391C13.3703 2.39773 10.9658 -0.00683594 7.9996 -0.00683594ZM7.99811 15.9998C6.77635 15.9998 5.7656 15.2251 5.59747 14.2172H10.3987C10.2306 15.2251 9.21987 15.9998 7.99811 15.9998ZM7.99811 11.8403L7.98354 11.8404H8.01267L7.99811 11.8403ZM5.5729 13.9201L5.57295 13.9073V13.9328L5.5729 13.9201Z" fill="white"/>
</svg>
