<svg width="16" height="16" viewBox="0 0 16 16" fill="none" xmlns="http://www.w3.org/2000/svg">
<path fill-rule="evenodd" clip-rule="evenodd" d="M3.96232 5.36342C3.96232 3.13362 5.76993 1.32601 7.99973 1.32601C10.2295 1.32601 12.0371 3.13362 12.0371 5.36342V7.27072V7.30473L12.0406 7.33855C12.0924 7.84554 12.2348 8.3401 12.4617 8.79845L13.6001 11.0977C13.7759 11.4527 13.5176 11.8688 13.1214 11.8688H2.87817C2.482 11.8688 2.2237 11.4527 2.39948 11.0977L3.51912 8.83634C3.8069 8.2551 3.95842 7.61603 3.9623 6.96768H3.96232V6.96368V5.36342ZM7.99973 -0.00732422C5.03355 -0.00732422 2.62898 2.39724 2.62898 5.36342V6.96158C2.62603 7.40679 2.52185 7.84559 2.32422 8.24473L1.20459 10.5061C0.590018 11.7473 1.4931 13.2022 2.87817 13.2022H13.1214C14.5065 13.2022 15.4096 11.7473 14.795 10.5061L13.6566 8.20684C13.5053 7.90131 13.4087 7.57239 13.3705 7.23497V5.36342C13.3705 2.39724 10.9659 -0.00732422 7.99973 -0.00732422ZM7.99823 15.9993C6.77647 15.9993 5.76572 15.2246 5.59759 14.2167H10.3989C10.2307 15.2246 9.21999 15.9993 7.99823 15.9993ZM7.99823 11.8399L7.98366 11.8399H8.01279L7.99823 11.8399ZM5.57302 13.9196L5.57307 13.9068V13.9324L5.57302 13.9196Z" fill="#141715"/>
</svg>
