<svg width="221" height="35" viewBox="0 0 221 35" fill="none" xmlns="http://www.w3.org/2000/svg">
<path d="M58.072 27V6.56H65.296L69.496 17.34H70.056L74.228 6.56H81.592V27H76.44V9.556L77.252 9.612L71.988 22.884H67.256L61.964 9.612L62.832 9.556V27H58.072ZM93.2199 27.56C91.8572 27.56 90.6439 27.3547 89.5799 26.944C88.5159 26.5333 87.6105 25.964 86.8639 25.236C86.1359 24.508 85.5759 23.668 85.1839 22.716C84.8105 21.764 84.6239 20.7467 84.6239 19.664V18.992C84.6239 17.872 84.8199 16.8267 85.2119 15.856C85.6225 14.8853 86.2012 14.036 86.9479 13.308C87.6945 12.58 88.5999 12.0107 89.6639 11.6C90.7279 11.1893 91.9132 10.984 93.2199 10.984C94.5452 10.984 95.7305 11.1893 96.7759 11.6C97.8399 12.0107 98.7452 12.58 99.4919 13.308C100.239 14.036 100.808 14.8853 101.2 15.856C101.611 16.8267 101.816 17.872 101.816 18.992V19.664C101.816 20.7467 101.62 21.764 101.228 22.716C100.855 23.668 100.295 24.508 99.5479 25.236C98.8199 25.964 97.9239 26.5333 96.8599 26.944C95.7959 27.3547 94.5825 27.56 93.2199 27.56ZM93.2199 23.304C94.0039 23.304 94.6479 23.136 95.1519 22.8C95.6745 22.464 96.0665 21.9973 96.3279 21.4C96.5892 20.784 96.7199 20.0933 96.7199 19.328C96.7199 18.5253 96.5799 17.8253 96.2999 17.228C96.0385 16.612 95.6465 16.1267 95.1239 15.772C94.6012 15.4173 93.9665 15.24 93.2199 15.24C92.4732 15.24 91.8385 15.4173 91.3159 15.772C90.7932 16.1267 90.3919 16.612 90.1119 17.228C89.8505 17.8253 89.7199 18.5253 89.7199 19.328C89.7199 20.0933 89.8505 20.784 90.1119 21.4C90.3732 21.9973 90.7652 22.464 91.2879 22.8C91.8105 23.136 92.4545 23.304 93.2199 23.304ZM107.135 27L102.711 11.544H107.919L112.035 27H107.135ZM108.759 27V22.744H113.715V27H108.759ZM110.551 27L114.051 11.544H118.923L115.115 27H110.551ZM128.155 27.56C126.848 27.56 125.691 27.336 124.683 26.888C123.675 26.44 122.825 25.8333 122.135 25.068C121.444 24.3027 120.912 23.444 120.539 22.492C120.184 21.54 120.007 20.56 120.007 19.552V18.992C120.007 17.9467 120.184 16.948 120.539 15.996C120.912 15.0253 121.435 14.1667 122.107 13.42C122.797 12.6733 123.637 12.0853 124.627 11.656C125.616 11.208 126.736 10.984 127.987 10.984C129.648 10.984 131.057 11.3573 132.215 12.104C133.372 12.8507 134.259 13.84 134.875 15.072C135.491 16.2853 135.799 17.6107 135.799 19.048V20.672H122.135V17.928H132.859L131.095 19.16C131.095 18.2827 130.973 17.5453 130.731 16.948C130.507 16.332 130.161 15.8653 129.695 15.548C129.247 15.2307 128.677 15.072 127.987 15.072C127.315 15.072 126.727 15.2307 126.223 15.548C125.737 15.8467 125.364 16.3133 125.103 16.948C124.841 17.564 124.711 18.348 124.711 19.3C124.711 20.1587 124.832 20.9053 125.075 21.54C125.317 22.156 125.691 22.632 126.195 22.968C126.699 23.304 127.352 23.472 128.155 23.472C128.864 23.472 129.443 23.3507 129.891 23.108C130.357 22.8653 130.684 22.5387 130.871 22.128H135.519C135.295 23.1733 134.847 24.1067 134.175 24.928C133.521 25.7493 132.681 26.3933 131.655 26.86C130.647 27.3267 129.48 27.56 128.155 27.56ZM138.485 27V11.544H142.517V18.208H142.293C142.293 16.6027 142.489 15.2773 142.881 14.232C143.291 13.168 143.889 12.3747 144.673 11.852C145.457 11.3107 146.418 11.04 147.557 11.04H147.781C148.938 11.04 149.899 11.3107 150.665 11.852C151.449 12.3747 152.037 13.168 152.429 14.232C152.839 15.2773 153.045 16.6027 153.045 18.208H151.869C151.869 16.6027 152.065 15.2773 152.457 14.232C152.867 13.168 153.465 12.3747 154.249 11.852C155.033 11.3107 155.994 11.04 157.133 11.04H157.357C158.514 11.04 159.485 11.3107 160.269 11.852C161.071 12.3747 161.678 13.168 162.089 14.232C162.518 15.2773 162.733 16.6027 162.733 18.208V27H157.637V18.068C157.637 17.3587 157.441 16.7707 157.049 16.304C156.675 15.8187 156.134 15.576 155.425 15.576C154.715 15.576 154.155 15.8187 153.745 16.304C153.353 16.7707 153.157 17.3773 153.157 18.124V27H148.061V18.068C148.061 17.3587 147.865 16.7707 147.473 16.304C147.099 15.8187 146.558 15.576 145.849 15.576C145.139 15.576 144.579 15.8187 144.169 16.304C143.777 16.7707 143.581 17.3773 143.581 18.124V27H138.485ZM173.409 27.56C172.102 27.56 170.945 27.336 169.937 26.888C168.929 26.44 168.079 25.8333 167.389 25.068C166.698 24.3027 166.166 23.444 165.793 22.492C165.438 21.54 165.261 20.56 165.261 19.552V18.992C165.261 17.9467 165.438 16.948 165.793 15.996C166.166 15.0253 166.689 14.1667 167.361 13.42C168.051 12.6733 168.891 12.0853 169.881 11.656C170.87 11.208 171.99 10.984 173.241 10.984C174.902 10.984 176.311 11.3573 177.469 12.104C178.626 12.8507 179.513 13.84 180.129 15.072C180.745 16.2853 181.053 17.6107 181.053 19.048V20.672H167.389V17.928H178.113L176.349 19.16C176.349 18.2827 176.227 17.5453 175.985 16.948C175.761 16.332 175.415 15.8653 174.949 15.548C174.501 15.2307 173.931 15.072 173.241 15.072C172.569 15.072 171.981 15.2307 171.477 15.548C170.991 15.8467 170.618 16.3133 170.357 16.948C170.095 17.564 169.965 18.348 169.965 19.3C169.965 20.1587 170.086 20.9053 170.329 21.54C170.571 22.156 170.945 22.632 171.449 22.968C171.953 23.304 172.606 23.472 173.409 23.472C174.118 23.472 174.697 23.3507 175.145 23.108C175.611 22.8653 175.938 22.5387 176.125 22.128H180.773C180.549 23.1733 180.101 24.1067 179.429 24.928C178.775 25.7493 177.935 26.3933 176.909 26.86C175.901 27.3267 174.734 27.56 173.409 27.56ZM183.739 27V11.544H187.771V18.18H187.547C187.547 16.5747 187.752 15.2493 188.163 14.204C188.573 13.14 189.18 12.3467 189.983 11.824C190.804 11.3013 191.793 11.04 192.951 11.04H193.175C194.929 11.04 196.283 11.628 197.235 12.804C198.205 13.9613 198.691 15.744 198.691 18.152V27H193.595V18.012C193.595 17.3027 193.38 16.724 192.951 16.276C192.54 15.8093 191.971 15.576 191.243 15.576C190.515 15.576 189.927 15.8093 189.479 16.276C189.049 16.724 188.835 17.3213 188.835 18.068V27H183.739ZM209.478 27.224C207.798 27.224 206.454 27.0187 205.446 26.608C204.456 26.1973 203.738 25.516 203.29 24.564C202.842 23.612 202.618 22.324 202.618 20.7L202.646 7.512H207.35L207.322 20.84C207.322 21.5307 207.499 22.0627 207.854 22.436C208.227 22.7907 208.759 22.968 209.45 22.968H211.578V27.224H209.478ZM200.378 15.24V11.544H211.578V15.24H200.378ZM213.581 27V21.456H219.069V27H213.581Z" fill="#F3FCFF"/>
<circle cx="3.8783" cy="5.45737" r="2.74235" transform="rotate(45 3.8783 5.45737)" fill="white"/>
<circle cx="9.48035" cy="10.9427" r="2.74235" transform="rotate(45 9.48035 10.9427)" fill="white"/>
<circle cx="3.8783" cy="16.7308" r="2.74235" transform="rotate(45 3.8783 16.7308)" fill="white"/>
<circle cx="15.0822" cy="16.7308" r="2.74235" transform="rotate(45 15.0822 16.7308)" fill="white"/>
<circle cx="3.8783" cy="27.7005" r="2.74235" transform="rotate(45 3.8783 27.7005)" fill="white"/>
<circle cx="37.49" cy="5.45737" r="2.74235" transform="rotate(45 37.49 5.45737)" fill="white"/>
<circle cx="31.8881" cy="10.9427" r="2.74235" transform="rotate(45 31.8881 10.9427)" fill="white"/>
<circle cx="26.286" cy="16.7308" r="2.74235" transform="rotate(45 26.286 16.7308)" fill="white"/>
<circle cx="20.6842" cy="22.2162" r="2.74235" transform="rotate(45 20.6842 22.2162)" fill="white"/>
<circle cx="37.49" cy="16.7308" r="2.74235" transform="rotate(45 37.49 16.7308)" fill="white"/>
<circle cx="37.49" cy="27.7005" r="2.74235" transform="rotate(45 37.49 27.7005)" fill="white"/>
</svg>
