<?xml version="1.0" encoding="UTF-8"?>
<svg id="Layer_1" data-name="Layer 1" xmlns="http://www.w3.org/2000/svg" xmlns:xlink="http://www.w3.org/1999/xlink" viewBox="0 0 864 95.9638">
  <a xlink:href="1.31647058823529">
    <path id="fullLogo" d="m105.7075,46.0442c-1.0695,0-2.1234-.164-3.1302-.4854l-.1264-.0377c-.1124-.0323-.2319-.0699-.3652-.1157-.299-.1022-.6241-.2514-.9893-.4504l-.1194-.0646c-1.3328-.6952-2.5183-1.6957-3.4309-2.8951-2.7859-3.6588-2.778-8.7605.0218-12.4073,1.1375-1.4831,2.6525-2.6275,4.3819-3.3106l.1708-.0712c.5213-.2205.9004-.3402,1.1977-.3779l.3277-.0538c.6755-.1372,1.3685-.2071,2.0632-.2071,4.177,0,7.6655-1.2895,10.087-3.7274,2.2411-2.2563,3.4091-5.3625,3.3795-8.9837V0h-25.5146v8.4741c0,1.6499-.0044,3.2998,0,4.9498.0061,3.3361-1.8872,7.8904-5.3582,9.0496-2.2098.7382-4.9513-.3644-7.2985-.0941-1.9286.2219-3.7993.8807-5.4399,1.9175-3.2974,2.0829-5.5247,5.6261-5.9527,9.5028-.1655,1.4953-.0727,2.61-.004,3.4249.0753.9077.0982,1.1807-.2194,2.0856-.6245,1.7669-1.9596,3.4088-3.7577,4.6216-1.798,1.2129-3.8652,1.8798-5.8221,1.8798l-.1911-.0027-.1912.0027c-1.9569,0-4.0255-.6669-5.8221-1.8798-1.7981-1.2115-3.1331-2.8547-3.7577-4.6216-.3175-.905-.296-1.1793-.2193-2.0856.0673-.8135.1601-1.9282-.0041-3.4249-.428-3.8767-2.6554-7.4185-5.9527-9.5028-1.6406-1.0368-3.5113-1.6956-5.4399-1.9175-2.3471-.2703-5.0886.8324-7.2986.0941-3.471-1.1591-5.3646-5.7135-5.3578-9.0496.004-1.65,0-3.2999,0-4.9498V0H.0552v12.8564c-.0296,3.6212,1.1399,6.7274,3.3794,8.9837,2.4212,2.4393,5.9097,3.7274,10.0872,3.7274.6945,0,1.3875.0699,2.0632.2071l.3271.0538c.2974.039.6769.1586,1.1978.3779l.1708.0712c1.7295.6831,3.2449,1.8275,4.3821,3.3106,2.7994,3.6467,2.8075,8.7484.0215,12.4073-.9125,1.1994-2.0995,2.1999-3.4305,2.8951l-.1199.0646c-.3647.199-.6904.3469-.9892.4504-.1333.0458-.253.0834-.3647.1157l-.1266.0377c-1.0067.3227-2.0605.4854-3.1304.4854-8.0886,0-13.5232,4.9699-13.5232,12.3669,0,5.774,2.6352,8.77,4.8451,10.2666,2.6971,1.8261,5.95,2.3437,9.0643,2.6288l.2154.0242c.8263.1076,1.5235.277,2.3243.5648l.3862.1465.0659.0242c2.0969.7154,3.8532,2.177,4.9474,4.116.6178,1.0959,1.0457,2.5307,1.2046,4.0381.0619.593.1036,1.1672.144,1.7346.0309.4317.0659.9157.1131,1.4024v11.1367h25.3344v-13.1133c0-3.3698-1.284-6.6386-3.6689-9.0214-.0861-.086-.1722-.1694-.2611-.2528-.1898-.1775-.3647-.3281-.5047-.4478l-.0861-.074c-2.7456-2.3773-6.3161-2.4405-8.9244-2.4876h-.0282c-.4361-.0081-.8493-.0161-1.214-.0336l-.3916-.0605-.8385-.1869-.79-.2435-.852-.3388c-.8922-.4047-1.7254-.9319-2.4642-1.5599l-.1655-.1425c-2.3607-2.1084-3.5316-4.7077-3.58-7.9443.0067-2.3128.7469-4.5046,2.1413-6.3401,1.3594-1.7884,3.2852-3.1196,5.4225-3.749,2.1641-.6361,6.2004-.6522,8.1465-.0309,3.5463,1.1309,6.0631,4.3823,6.2609,8.0909.0161.3066.004.628-.0094,1.0044-.0404,1.0878-.0956,2.5778.5329,4.4616,1.7765,5.2388,6.6902,8.774,12.2432,8.7982,5.5531-.0255,10.4668-3.5594,12.2433-8.7982.6285-1.8825.5733-3.3724.5329-4.4616-.0134-.3765-.0255-.6992-.0094-1.0044.1979-3.7086,2.7132-6.96,6.2609-8.0909,1.9474-.6212,5.9823-.6051,8.1468.0309,2.1365.6293,4.0637,1.9619,5.4218,3.749,1.3947,1.8355,2.1347,4.0273,2.1417,6.3401-.0488,3.2366-1.2195,5.8345-3.5799,7.9443l-.1656.1425c-.7392.6266-1.5716,1.1551-2.4642,1.5599l-.8525.3388-.7897.2435-.8383.1869-.3916.0605c-.3634.0175-.778.0255-1.214.0336h-.0283c-2.6069.0471-6.1788.1103-8.9243,2.4876l-.0861.074c-.14.1197-.3149.2703-.5047.4478-.0888.0833-.1749.1681-.2612.2528-2.3848,2.3828-3.6688,5.6516-3.6688,9.0214v13.1133h25.3348v-11.1367c.0471-.4854.0819-.9708.1125-1.4024.041-.5661.0819-1.1403.1438-1.7346.1595-1.5074.5875-2.9422,1.2047-4.0381,1.0931-1.939,2.8504-3.4007,4.9476-4.116l.0662-.0242.3862-.1465c.8002-.2864,1.4975-.4559,2.3239-.5648l.2153-.0242c3.1145-.285,6.3675-.8027,9.0645-2.6288,2.2097-1.4967,4.8456-4.4926,4.8456-10.2666,0-7.397-5.4349-12.3669-13.5239-12.3669h.0044Z" style="fill: #fff; stroke-width: 0px;"/>
  </a>
  <path id="fullLogo-2" data-name="fullLogo" d="m279.9325,94.4872l.0079.007h-15.8147V26.0732c0-3.4804-4.9546-4.1187-5.8376-.757l-18.1882,69.1779h-30.0334l-18.1953-69.1779c-.883-3.3617-5.8376-2.7234-5.8376.757v68.4209h-15.8147V1.2798h31.2581l20.7762,80.354c.7645,2.9684,4.9851,2.9684,5.7487,0L248.6752,1.2798h31.2572v93.2073Zm71.8395-33.1128c0,20.3556-12.8693,34.5894-33.3422,34.5894s-33.2228-14.1077-33.2228-34.5894c0-20.3556,12.8693-34.4629,33.2228-34.4629s33.3422,14.1073,33.3422,34.4629Zm-15.6883,0c0-14.4709-6.2525-23.6728-17.6539-23.6728s-17.654,9.202-17.654,23.6728,6.3719,23.7915,17.654,23.7915,17.6539-9.202,17.6539-23.7915Zm66.0682-32.9859v.0074l-16.5338,54.8704c-.8525,2.8051-4.829,2.8125-5.6815,0l-16.6454-54.8778h-15.3249l20.4729,66.1057h28.6841l20.472-66.1057h-15.4434Zm76.4977,32.6148c0,1.4694-.1264,3.191-.3714,4.9053v.0074h-45.373c-1.8767,0-3.2635,1.7216-2.9079,3.5694,2.0179,10.3968,8.13,15.6879,16.5268,15.6879s12.7508-3.7995,15.0799-10.1815h15.5698c-4.1692,14.1077-15.3249,20.9721-30.7682,20.9721-20.228,0-32.4898-14.4713-32.4898-34.5894s12.6253-34.4629,32.4898-34.4629,32.244,13.4913,32.244,34.0918Zm-16.2-9.3652c-1.7948-8.5044-7.7369-13.9291-16.0518-13.9291s-13.7968,4.4749-16.1032,13.8549c-.4603,1.8701.9562,3.6808,2.8852,3.6808h26.3697c1.8916,0,3.2932-1.7514,2.9001-3.6066Zm97.111-24.7266c-8.8936,0-14.7094,4.6901-18.1804,10.4784-1.1872,1.9665-3.9984,1.9517-5.1481-.0371-3.4047-5.8996-9.3164-10.4413-17.9878-10.4413-6.6979,0-11.5418,2.5677-14.9761,6.3375-1.8165,1.9889-5.1324.668-5.1324-2.0258v-2.8348h-15.1984v66.1059h15.3239v-38.3886c0-12.6305,4.5327-18.2704,13.1143-18.2704s12.9957,5.6399,12.9957,18.0254v38.6335h15.3248v-38.3886c0-12.6305,4.5326-18.2704,13.1143-18.2704s12.9957,5.6399,12.9957,18.0254v38.6335h15.3248v-41.5796h.0079c0-15.0867-6.8688-26.003-21.5782-26.003Zm90.094,34.0918c0,1.4694-.1264,3.191-.3704,4.9053v.0074h-45.3739c-1.8767,0-3.2635,1.7216-2.9079,3.5694,2.0179,10.3968,8.1301,15.6879,16.5269,15.6879s12.7508-3.7995,15.0799-10.1815h15.5698c-4.1692,14.1077-15.3248,20.9721-30.7682,20.9721-20.228,0-32.4889-14.4713-32.4889-34.5894s12.6244-34.4629,32.4889-34.4629,32.2439,13.4913,32.2439,34.0918Zm-16.2-9.3652c-1.7947-8.5044-7.7361-13.9291-16.0518-13.9291s-13.7968,4.4749-16.1032,13.8549c-.4603,1.8701.9571,3.6808,2.8852,3.6808h26.3698c1.8915,0,3.2932-1.7514,2.9-3.6066Zm56.6559-24.7189c-7.0169,0-12.1728,2.5973-15.8147,6.4785-1.854,1.974-5.1551.705-5.1551-2.0036v-3.0055h-15.1984v66.1056h15.3248v-38.3884c0-12.6304,5.2736-18.2704,13.9746-18.2704s13.9746,5.5139,13.9746,18.0255v38.6333h15.3248v-41.572c0-14.7231-7.2322-26.0029-22.4307-26.0029Zm51.2551,56.1763l.0078-.0074c-5.6379,0-8.9538-1.8404-8.9538-8.215v-32.2291c0-1.64,1.3284-2.9684,2.9672-2.9684h12.7211v-11.2798h-12.7211c-1.6387,0-2.9672-1.3284-2.9672-2.9684v-12.7269h-15.324v62.9148c0,12.8757,9.442,18.8858,21.6959,18.8858h9.5613v-11.4056h-6.9873Z" style="fill: #fff; stroke-width: 0px;"/>
  <path id="fullLogo-3" data-name="fullLogo" d="m782.3149,33.6084h8.9102v3.1191h-13.2468V15.367h3.6514v17.5612c0,.3759.3068.6802.6851.6802Zm23.9099-18.2414l7.4423,21.3605h-3.8493l-1.9098-5.6632c-.0941-.2773-.3548-.4644-.6485-.4644h-9.061c-.2946,0-.557.1871-.6494.4644l-1.909,5.6632h-3.8502l7.444-21.3605h6.9908Zm.1743,11.2431l-3.0107-8.8859c-.2083-.6174-1.087-.6174-1.2979,0l-3.0325,8.8859c-.1508.4406.1796.898.6494.898h6.0433c.4689,0,.7976-.4558.6485-.898Zm25.098,4.1591c-.0004,3.7937-2.9152,5.9584-8.2355,5.9584h-8.5197V15.367h8.463c5.4061,0,7.5574,2.585,7.5574,5.5647s-2.2637,4.5255-5.4061,4.835c3.9055.1411,6.1404,1.7702,6.1408,5.0025Zm-13.1046-7.2576c0,.3758.3068.6802.6851.6802h4.211c2.35,0,3.7081-.8707,3.7081-2.8385s-1.358-2.8673-3.7081-2.8673h-4.211c-.3783,0-.6851.3045-.6851.6804v4.3452Zm9.3408,6.9473c0-2.0511-1.4147-3.1479-4.3026-3.1479h-4.3531c-.3783,0-.6851.3044-.6851.6802v4.9354c0,.3758.3068.6802.6851.6802h4.3531c2.8879,0,4.3026-1.0969,4.3026-3.1479Zm3.7639.3112v-.0016s0,.0005,0,.0008c0,.0003,0,.0005,0,.0009Zm12.3672-6.2704l-2.8582-.619c-3.1407-.7024-4.415-1.3214-4.415-3.063s2.0109-2.8384,4.3871-2.8384,4.1308.898,4.7541,3.0068h3.7935c-.6215-3.5136-3.6514-5.9592-8.5476-5.9592-4.5005,0-8.0377,2.5867-8.0377,6.1275,0,3.2891,2.4058,5.0323,5.8872,5.7908l2.887.6191c3.1703.7023,4.7271,1.3197,4.7271,3.2601s-1.8959,3.2891-5.3207,3.2891c-2.6325,0-4.6704-1.2925-5.0383-3.9064h-3.7935l-.0018-.0034c.6233,4.2721,4.0193,6.8588,8.7455,6.8588,5.434,0,9.0287-2.6139,9.0287-6.6326,0-3.3452-2.0092-5.0034-6.1976-5.9303Zm-76.9937-7.4225v3.2601c0,3.0919-.8786,3.5697-2.8303,3.7942v3.3453c1.9534.2245,2.8303.7024,2.8303,3.7381v3.8503c0,2.5867,1.4714,4.4133,4.8107,4.4133h.9911v-2.6139h-.3391c-1.2735,0-1.9247-.7313-1.9247-2.2483v-3.9626c0-2.437-.7993-3.5832-2.1478-4.2329-.5064-.2449-.5099-.9678-.0052-1.2143,1.3598-.6616,2.153-1.818,2.153-4.3062v-3.3724c0-1.5459.6233-2.3044,1.9247-2.3044h.3391v-2.6139h-.9911c-3.3672,0-4.8107,1.8554-4.8107,4.4677Zm94.299,3.7958v-3.8503c0-2.5867-1.4714-4.4133-4.8108-4.4133h-.9911v2.6139h.3391c1.2735,0,1.9247.7313,1.9247,2.2483v3.9626c0,2.437.7993,3.5832,2.1478,4.2329.5064.2449.5099.9678.0052,1.2143-1.3598.6616-2.153,1.818-2.153,4.3061v3.3742c0,1.5459-.6233,2.3045-1.9247,2.3045h-.3391v2.6138h.9911c3.3673,0,4.8108-1.8554,4.8108-4.4693v-3.2602c0-3.0918.8786-3.5697,2.8303-3.7942v-3.3453c-1.9534-.2245-2.8303-.7024-2.8303-3.7381Z" style="fill: #fff; stroke-width: 0px;"/>
</svg>