<svg width="320" height="320" viewBox="0 0 320 320" fill="none" xmlns="http://www.w3.org/2000/svg">
<circle cx="160" cy="160" r="160" fill="#0A0A0A"/>
<circle cx="104.728" cy="123.728" r="9" transform="rotate(45 104.728 123.728)" fill="#49D6CE"/>
<circle cx="123.113" cy="141.728" r="9" transform="rotate(45 123.113 141.728)" fill="#49D6CE"/>
<circle cx="104.728" cy="160.728" r="9" transform="rotate(45 104.728 160.728)" fill="#49D6CE"/>
<circle cx="141.498" cy="160.728" r="9" transform="rotate(45 141.498 160.728)" fill="#49D6CE"/>
<circle cx="104.728" cy="196.728" r="9" transform="rotate(45 104.728 196.728)" fill="#49D6CE"/>
<circle cx="215.037" cy="123.728" r="9" transform="rotate(45 215.037 123.728)" fill="#49D6CE"/>
<circle cx="196.652" cy="141.728" r="9" transform="rotate(45 196.652 141.728)" fill="#49D6CE"/>
<circle cx="178.267" cy="160.728" r="9" transform="rotate(45 178.267 160.728)" fill="#49D6CE"/>
<circle cx="159.882" cy="178.728" r="9" transform="rotate(45 159.882 178.728)" fill="#49D6CE"/>
<circle cx="215.037" cy="160.728" r="9" transform="rotate(45 215.037 160.728)" fill="#49D6CE"/>
<circle cx="215.037" cy="196.728" r="9" transform="rotate(45 215.037 196.728)" fill="#49D6CE"/>
</svg>
