<svg width="624" height="624" viewBox="0 0 624 624" fill="none" xmlns="http://www.w3.org/2000/svg">
<circle cx="311.875" cy="311.875" r="311.875" fill="white"/>
<path d="M459.422 308.407C455.997 308.407 452.635 307.895 449.401 306.839L448.985 306.71C448.633 306.614 448.248 306.486 447.8 306.326C446.84 306.006 445.815 305.526 444.63 304.886L444.246 304.693C439.988 302.452 436.178 299.25 433.264 295.408C424.331 283.69 424.363 267.361 433.328 255.675C436.978 250.936 441.813 247.254 447.352 245.077L447.896 244.853C449.561 244.149 450.778 243.765 451.738 243.637L452.795 243.476C454.972 243.028 457.181 242.804 459.39 242.804C472.774 242.804 483.948 238.674 491.696 230.862C498.868 223.626 502.614 213.7 502.518 202.11V161H420.842V188.119C420.842 193.401 420.842 198.684 420.842 203.967C420.842 214.661 414.79 229.229 403.68 232.943C396.605 235.312 387.832 231.79 380.308 232.655C374.128 233.359 368.141 235.472 362.89 238.802C352.325 245.462 345.217 256.828 343.84 269.218C343.296 274.021 343.616 277.575 343.84 280.168C344.096 283.082 344.16 283.946 343.136 286.86C341.151 292.527 336.86 297.778 331.097 301.652C325.334 305.526 318.707 307.671 312.463 307.671H311.855H311.247C304.971 307.671 298.344 305.526 292.612 301.652C286.849 297.778 282.591 292.527 280.574 286.86C279.549 283.978 279.613 283.082 279.87 280.168C280.094 277.575 280.382 273.989 279.87 269.218C278.493 256.796 271.353 245.462 260.819 238.802C255.569 235.472 249.581 233.359 243.402 232.655C235.878 231.79 227.105 235.312 220.029 232.943C208.919 229.229 202.868 214.661 202.868 203.967C202.868 198.684 202.868 193.401 202.868 188.119V161H121.16V202.174C121.064 213.764 124.81 223.722 131.982 230.926C139.73 238.738 150.904 242.868 164.287 242.868C166.497 242.868 168.738 243.092 170.883 243.54L171.939 243.701C172.9 243.829 174.117 244.213 175.782 244.917L176.326 245.141C181.865 247.319 186.699 251 190.349 255.739C199.314 267.425 199.346 283.754 190.413 295.472C187.5 299.315 183.69 302.516 179.431 304.757L179.047 304.95C177.895 305.59 176.838 306.07 175.878 306.39C175.461 306.55 175.077 306.646 174.725 306.775L174.309 306.903C171.075 307.927 167.713 308.471 164.287 308.471C138.385 308.471 121 324.384 121 348.077C121 366.551 129.453 376.156 136.528 380.958C145.173 386.818 155.579 388.451 165.536 389.379L166.24 389.443C168.898 389.795 171.107 390.34 173.668 391.236L174.917 391.716L175.141 391.78C181.865 394.086 187.468 398.76 190.99 404.971C192.975 408.493 194.352 413.072 194.832 417.906C195.024 419.795 195.152 421.652 195.28 423.445C195.376 424.822 195.504 426.391 195.632 427.928V463.595H276.732V421.62C276.732 410.831 272.634 400.361 264.982 392.741C264.693 392.453 264.437 392.197 264.149 391.94C263.541 391.364 262.997 390.884 262.548 390.5L262.26 390.276C253.455 382.655 242.025 382.463 233.701 382.303H233.605C232.196 382.303 230.883 382.239 229.731 382.207L228.482 382.015L225.792 381.407L223.263 380.638L220.542 379.55C217.692 378.269 215.003 376.572 212.665 374.555L212.121 374.107C204.565 367.351 200.819 359.027 200.659 348.685C200.659 341.289 203.06 334.277 207.511 328.386C211.865 322.655 218.044 318.397 224.864 316.38C231.78 314.331 244.715 314.299 250.958 316.284C262.324 319.902 270.361 330.307 271.001 342.186C271.065 343.178 271.001 344.203 271.001 345.387C270.873 348.877 270.681 353.648 272.698 359.667C278.397 376.444 294.117 387.746 311.887 387.842C329.656 387.746 345.409 376.444 351.076 359.667C353.093 353.648 352.901 348.877 352.773 345.387C352.741 344.171 352.677 343.146 352.773 342.186C353.413 330.307 361.45 319.902 372.816 316.284C379.059 314.299 391.962 314.331 398.91 316.38C405.761 318.397 411.909 322.655 416.263 328.386C420.714 334.277 423.083 341.289 423.115 348.685C422.955 359.059 419.209 367.351 411.653 374.107L411.108 374.555C408.739 376.572 406.082 378.269 403.232 379.55L400.511 380.638L397.981 381.407L395.292 382.015L394.043 382.207C392.891 382.271 391.546 382.303 390.169 382.303H390.073C381.717 382.463 370.286 382.655 361.514 390.276L361.225 390.5C360.777 390.884 360.233 391.364 359.625 391.94C359.336 392.197 359.08 392.485 358.792 392.741C351.172 400.361 347.042 410.831 347.042 421.62V463.595H428.142V427.928C428.302 426.359 428.398 424.822 428.494 423.445C428.622 421.62 428.75 419.795 428.942 417.906C429.454 413.072 430.831 408.493 432.784 404.971C436.274 398.76 441.909 394.086 448.633 391.78L448.857 391.716L450.105 391.236C452.667 390.308 454.908 389.763 457.533 389.443L458.238 389.379C468.195 388.451 478.633 386.818 487.245 380.958C494.321 376.156 502.774 366.583 502.774 348.077C502.774 324.384 485.388 308.471 459.486 308.471L459.422 308.407Z" fill="black"/>
</svg>
