<svg width="120" height="86" viewBox="0 0 120 86" fill="none" xmlns="http://www.w3.org/2000/svg">
<path d="M111.928 83.5825H109.796V79.1205H111.928V83.5825ZM111.928 74.6585H109.796V70.1965H111.928V74.6585ZM111.928 65.7239H109.796V61.2619H111.928V65.7239ZM111.928 56.7999H109.796V52.3379H111.928V56.7999ZM111.928 47.8653H109.796V43.4033H111.928V47.8653ZM111.928 38.9413H109.796V34.4793H111.928V38.9413ZM111.928 30.0173H109.796V25.5553H111.928V30.0173ZM111.928 21.0933H109.796V16.6419L111.928 16.61V21.0933ZM108.559 13.1148C107.78 12.0843 106.725 11.33 105.498 10.9369L106.16 8.91835C107.802 9.44954 109.23 10.4588 110.275 11.8505L108.569 13.1254L108.559 13.1148ZM101.383 10.6288H96.9042V8.50403H101.383V10.6288ZM92.4151 10.6288H87.9367V8.50403H92.4151V10.6288ZM83.4583 10.6288H78.9799V8.50403H83.4583V10.6288ZM74.4908 10.6288H70.0124V8.50403H74.4908V10.6288ZM65.534 10.6288H61.0556V8.50403H65.534V10.6288ZM56.5772 10.6288H52.0988V8.50403H56.5772V10.6288ZM47.6097 10.6288H43.1313V8.50403H47.6097V10.6288ZM38.6529 10.6288H34.1745V8.50403H38.6529V10.6288ZM29.6854 10.6288H25.207V8.50403H29.6854V10.6288ZM20.7286 10.6288H16.2502V8.50403H20.7286V10.6288ZM11.7612 10.6288H7.28274V8.50403H11.7612V10.6288ZM2.80434 10.6288H0V8.50403H2.80434V10.6288Z" fill="#A3A3A3"/>
<path d="M113.336 85.1974H6.77093C3.09223 85.1974 0.106629 82.2227 0.106629 78.5575V7.44164C0.106629 3.77643 3.09223 0.801758 6.77093 0.801758H113.336C117.014 0.801758 120 3.77643 120 7.44164V78.5575C120 82.2227 117.014 85.1974 113.336 85.1974ZM6.77093 2.92652C4.27581 2.92652 2.2392 4.95567 2.2392 7.44164V78.5575C2.2392 81.0434 4.27581 83.0726 6.77093 83.0726H113.336C115.831 83.0726 117.867 81.0434 117.867 78.5575V7.44164C117.867 4.95567 115.831 2.92652 113.336 2.92652H6.77093Z" fill="#A3A3A3"/>
<path d="M38.0665 28.1475H35.9339V38.8881H38.0665V28.1475Z" fill="#A3A3A3"/>
<path d="M45.3172 28.1475H43.1846V38.8881H45.3172V28.1475Z" fill="#A3A3A3"/>
<path d="M52.8345 28.1475H50.702V38.8881H52.8345V28.1475Z" fill="#A3A3A3"/>
<path d="M60.0746 28.1475H57.9421V38.8881H60.0746V28.1475Z" fill="#A3A3A3"/>
<path d="M67.3254 28.1475H65.1928V38.8881H67.3254V28.1475Z" fill="#A3A3A3"/>
<path d="M73.6911 28.1475H71.5586V38.8881H73.6911V28.1475Z" fill="#A3A3A3"/>
<path d="M23.3837 39.3662C19.8329 39.3662 16.954 36.4872 16.954 32.9601C16.954 29.4329 19.8436 26.5539 23.3837 26.5539C26.9238 26.5539 29.8134 29.4329 29.8134 32.9601C29.8134 36.4872 26.9238 39.3662 23.3837 39.3662ZM23.3837 28.6787C21.0165 28.6787 19.0865 30.6016 19.0865 32.9601C19.0865 35.3185 21.0165 37.2415 23.3837 37.2415C25.7508 37.2415 27.6808 35.3185 27.6808 32.9601C27.6808 30.6016 25.7508 28.6787 23.3837 28.6787Z" fill="#A3A3A3"/>
<path d="M83.0638 61.6869H22.5093V63.8116H83.0638V61.6869Z" fill="#A3A3A3"/>
<path d="M67.2401 50.755H22.5093V52.8797H67.2401V50.755Z" fill="#A3A3A3"/>
</svg>
